# xmcd
#
# Track frame offsets:
# 150
# 17139
# 40750
#
# Disc length: 826 seconds
#
#
# Revision: 0
# Processed by: cddbd v1.5.2PL0 Copyright (c) Steve Scherf et al.
# Submitted via: FreeRIP 2.951 
#
DISCID=1a033803
DTITLE=Hell Is For Heroes - Retreat CD
DYEAR=2003
DGENRE=Punk
TTITLE0=Retreat
TTITLE1=Slow Song (BBC Lamacq Live Session)
TTITLE2=Changes (Black Sabbath Cover)
EXTD=
EXTT0=
EXTT1=
EXTT2=
PLAYORDER=
